<svg xmlns="http://www.w3.org/2000/svg" viewBox="0 0 250 250" role="img" aria-label="UPI QR code">
  <rect width="250" height="250" fill="#ffffff"/>
  <g fill="#000000">
    <path d="M14 14h48v48H14zM22 22h32v32H22zM30 30h16v16H30zM188 14h48v48h-48zM196 22h32v32h-32zM204 30h16v16h-16zM14 188h48v48H14zM22 196h32v32H22zM30 204h16v16H30z"/>
    <rect x="78" y="14" width="8" height="8"/><rect x="94" y="14" width="8" height="8"/><rect x="102" y="14" width="8" height="8"/><rect x="118" y="14" width="8" height="8"/><rect x="126" y="14" width="8" height="8"/><rect x="142" y="14" width="8" height="8"/><rect x="150" y="14" width="8" height="8"/><rect x="166" y="14" width="8" height="8"/>
    <rect x="70" y="22" width="8" height="8"/><rect x="86" y="22" width="8" height="8"/><rect x="110" y="22" width="8" height="8"/><rect x="118" y="22" width="8" height="8"/><rect x="134" y="22" width="8" height="8"/><rect x="142" y="22" width="8" height="8"/><rect x="158" y="22" width="8" height="8"/>
    <rect x="78" y="30" width="8" height="8"/><rect x="102" y="30" width="8" height="8"/><rect x="110" y="30" width="8" height="8"/><rect x="126" y="30" width="8" height="8"/><rect x="150" y="30" width="8" height="8"/><rect x="158" y="30" width="8" height="8"/><rect x="174" y="30" width="8" height="8"/>
    <rect x="70" y="38" width="8" height="8"/><rect x="86" y="38" width="8" height="8"/><rect x="94" y="38" width="8" height="8"/><rect x="110" y="38" width="8" height="8"/><rect x="118" y="38" width="8" height="8"/><rect x="142" y="38" width="8" height="8"/><rect x="166" y="38" width="8" height="8"/>
    <rect x="78" y="46" width="8" height="8"/><rect x="102" y="46" width="8" height="8"/><rect x="126" y="46" width="8" height="8"/><rect x="134" y="46" width="8" height="8"/><rect x="150" y="46" width="8" height="8"/><rect x="174" y="46" width="8" height="8"/>
    <rect x="70" y="54" width="8" height="8"/><rect x="78" y="54" width="8" height="8"/><rect x="86" y="54" width="8" height="8"/><rect x="94" y="54" width="8" height="8"/><rect x="102" y="54" width="8" height="8"/><rect x="118" y="54" width="8" height="8"/><rect x="126" y="54" width="8" height="8"/><rect x="134" y="54" width="8" height="8"/><rect x="142" y="54" width="8" height="8"/><rect x="150" y="54" width="8" height="8"/><rect x="158" y="54" width="8" height="8"/><rect x="166" y="54" width="8" height="8"/>
    <rect x="14" y="70" width="8" height="8"/><rect x="30" y="70" width="8" height="8"/><rect x="46" y="70" width="8" height="8"/><rect x="62" y="70" width="8" height="8"/><rect x="70" y="70" width="8" height="8"/><rect x="86" y="70" width="8" height="8"/><rect x="94" y="70" width="8" height="8"/><rect x="110" y="70" width="8" height="8"/><rect x="126" y="70" width="8" height="8"/><rect x="134" y="70" width="8" height="8"/><rect x="150" y="70" width="8" height="8"/><rect x="166" y="70" width="8" height="8"/><rect x="182" y="70" width="8" height="8"/><rect x="198" y="70" width="8" height="8"/><rect x="206" y="70" width="8" height="8"/><rect x="222" y="70" width="8" height="8"/>
    <rect x="22" y="78" width="8" height="8"/><rect x="38" y="78" width="8" height="8"/><rect x="54" y="78" width="8" height="8"/><rect x="62" y="78" width="8" height="8"/><rect x="78" y="78" width="8" height="8"/><rect x="102" y="78" width="8" height="8"/><rect x="118" y="78" width="8" height="8"/><rect x="134" y="78" width="8" height="8"/><rect x="142" y="78" width="8" height="8"/><rect x="174" y="78" width="8" height="8"/><rect x="182" y="78" width="8" height="8"/><rect x="214" y="78" width="8" height="8"/>
    <rect x="14" y="86" width="8" height="8"/><rect x="22" y="86" width="8" height="8"/><rect x="30" y="86" width="8" height="8"/><rect x="54" y="86" width="8" height="8"/><rect x="62" y="86" width="8" height="8"/><rect x="70" y="86" width="8" height="8"/><rect x="78" y="86" width="8" height="8"/><rect x="86" y="86" width="8" height="8"/><rect x="94" y="86" width="8" height="8"/><rect x="102" y="86" width="8" height="8"/><rect x="126" y="86" width="8" height="8"/><rect x="134" y="86" width="8" height="8"/><rect x="150" y="86" width="8" height="8"/><rect x="158" y="86" width="8" height="8"/><rect x="166" y="86" width="8" height="8"/><rect x="182" y="86" width="8" height="8"/><rect x="190" y="86" width="8" height="8"/><rect x="198" y="86" width="8" height="8"/><rect x="214" y="86" width="8" height="8"/>
    <rect x="38" y="94" width="8" height="8"/><rect x="54" y="94" width="8" height="8"/><rect x="70" y="94" width="8" height="8"/><rect x="86" y="94" width="8" height="8"/><rect x="110" y="94" width="8" height="8"/><rect x="126" y="94" width="8" height="8"/><rect x="142" y="94" width="8" height="8"/><rect x="158" y="94" width="8" height="8"/><rect x="182" y="94" width="8" height="8"/><rect x="198" y="94" width="8" height="8"/><rect x="214" y="94" width="8" height="8"/><rect x="230" y="94" width="8" height="8"/>
    <rect x="14" y="102" width="8" height="8"/><rect x="22" y="102" width="8" height="8"/><rect x="30" y="102" width="8" height="8"/><rect x="46" y="102" width="8" height="8"/><rect x="62" y="102" width="8" height="8"/><rect x="78" y="102" width="8" height="8"/><rect x="94" y="102" width="8" height="8"/><rect x="118" y="102" width="8" height="8"/><rect x="126" y="102" width="8" height="8"/><rect x="142" y="102" width="8" height="8"/><rect x="166" y="102" width="8" height="8"/><rect x="174" y="102" width="8" height="8"/><rect x="190" y="102" width="8" height="8"/><rect x="206" y="102" width="8" height="8"/><rect x="214" y="102" width="8" height="8"/><rect x="230" y="102" width="8" height="8"/>
    <rect x="22" y="110" width="8" height="8"/><rect x="38" y="110" width="8" height="8"/><rect x="54" y="110" width="8" height="8"/><rect x="70" y="110" width="8" height="8"/><rect x="78" y="110" width="8" height="8"/><rect x="94" y="110" width="8" height="8"/><rect x="102" y="110" width="8" height="8"/><rect x="126" y="110" width="8" height="8"/><rect x="150" y="110" width="8" height="8"/><rect x="158" y="110" width="8" height="8"/><rect x="182" y="110" width="8" height="8"/><rect x="190" y="110" width="8" height="8"/><rect x="214" y="110" width="8" height="8"/>
    <rect x="14" y="118" width="8" height="8"/><rect x="30" y="118" width="8" height="8"/><rect x="46" y="118" width="8" height="8"/><rect x="54" y="118" width="8" height="8"/><rect x="70" y="118" width="8" height="8"/><rect x="78" y="118" width="8" height="8"/><rect x="86" y="118" width="8" height="8"/><rect x="110" y="118" width="8" height="8"/><rect x="126" y="118" width="8" height="8"/><rect x="142" y="118" width="8" height="8"/><rect x="158" y="118" width="8" height="8"/><rect x="166" y="118" width="8" height="8"/><rect x="182" y="118" width="8" height="8"/><rect x="198" y="118" width="8" height="8"/><rect x="214" y="118" width="8" height="8"/><rect x="230" y="118" width="8" height="8"/>
    <rect x="22" y="126" width="8" height="8"/><rect x="38" y="126" width="8" height="8"/><rect x="62" y="126" width="8" height="8"/><rect x="70" y="126" width="8" height="8"/><rect x="86" y="126" width="8" height="8"/><rect x="94" y="126" width="8" height="8"/><rect x="102" y="126" width="8" height="8"/><rect x="118" y="126" width="8" height="8"/><rect x="134" y="126" width="8" height="8"/><rect x="142" y="126" width="8" height="8"/><rect x="150" y="126" width="8" height="8"/><rect x="174" y="126" width="8" height="8"/><rect x="190" y="126" width="8" height="8"/><rect x="206" y="126" width="8" height="8"/><rect x="222" y="126" width="8" height="8"/>
    <rect x="14" y="134" width="8" height="8"/><rect x="22" y="134" width="8" height="8"/><rect x="46" y="134" width="8" height="8"/><rect x="54" y="134" width="8" height="8"/><rect x="62" y="134" width="8" height="8"/><rect x="78" y="134" width="8" height="8"/><rect x="94" y="134" width="8" height="8"/><rect x="102" y="134" width="8" height="8"/><rect x="118" y="134" width="8" height="8"/><rect x="126" y="134" width="8" height="8"/><rect x="150" y="134" width="8" height="8"/><rect x="166" y="134" width="8" height="8"/><rect x="182" y="134" width="8" height="8"/><rect x="198" y="134" width="8" height="8"/><rect x="206" y="134" width="8" height="8"/><rect x="214" y="134" width="8" height="8"/><rect x="230" y="134" width="8" height="8"/>
    <rect x="30" y="142" width="8" height="8"/><rect x="38" y="142" width="8" height="8"/><rect x="54" y="142" width="8" height="8"/><rect x="70" y="142" width="8" height="8"/><rect x="78" y="142" width="8" height="8"/><rect x="86" y="142" width="8" height="8"/><rect x="110" y="142" width="8" height="8"/><rect x="126" y="142" width="8" height="8"/><rect x="142" y="142" width="8" height="8"/><rect x="158" y="142" width="8" height="8"/><rect x="174" y="142" width="8" height="8"/><rect x="190" y="142" width="8" height="8"/><rect x="206" y="142" width="8" height="8"/><rect x="222" y="142" width="8" height="8"/>
    <rect x="14" y="150" width="8" height="8"/><rect x="22" y="150" width="8" height="8"/><rect x="46" y="150" width="8" height="8"/><rect x="62" y="150" width="8" height="8"/><rect x="86" y="150" width="8" height="8"/><rect x="94" y="150" width="8" height="8"/><rect x="102" y="150" width="8" height="8"/><rect x="118" y="150" width="8" height="8"/><rect x="134" y="150" width="8" height="8"/><rect x="142" y="150" width="8" height="8"/><rect x="158" y="150" width="8" height="8"/><rect x="174" y="150" width="8" height="8"/><rect x="182" y="150" width="8" height="8"/><rect x="198" y="150" width="8" height="8"/><rect x="214" y="150" width="8" height="8"/><rect x="230" y="150" width="8" height="8"/>
    <rect x="14" y="158" width="8" height="8"/><rect x="30" y="158" width="8" height="8"/><rect x="54" y="158" width="8" height="8"/><rect x="70" y="158" width="8" height="8"/><rect x="94" y="158" width="8" height="8"/><rect x="110" y="158" width="8" height="8"/><rect x="118" y="158" width="8" height="8"/><rect x="126" y="158" width="8" height="8"/><rect x="150" y="158" width="8" height="8"/><rect x="166" y="158" width="8" height="8"/><rect x="182" y="158" width="8" height="8"/><rect x="190" y="158" width="8" height="8"/><rect x="214" y="158" width="8" height="8"/><rect x="222" y="158" width="8" height="8"/>
    <rect x="14" y="166" width="8" height="8"/><rect x="38" y="166" width="8" height="8"/><rect x="46" y="166" width="8" height="8"/><rect x="54" y="166" width="8" height="8"/><rect x="78" y="166" width="8" height="8"/><rect x="86" y="166" width="8" height="8"/><rect x="102" y="166" width="8" height="8"/><rect x="118" y="166" width="8" height="8"/><rect x="126" y="166" width="8" height="8"/><rect x="142" y="166" width="8" height="8"/><rect x="158" y="166" width="8" height="8"/><rect x="174" y="166" width="8" height="8"/><rect x="182" y="166" width="8" height="8"/><rect x="198" y="166" width="8" height="8"/><rect x="214" y="166" width="8" height="8"/><rect x="230" y="166" width="8" height="8"/>
    <rect x="78" y="174" width="8" height="8"/><rect x="86" y="174" width="8" height="8"/><rect x="94" y="174" width="8" height="8"/><rect x="102" y="174" width="8" height="8"/><rect x="118" y="174" width="8" height="8"/><rect x="126" y="174" width="8" height="8"/><rect x="142" y="174" width="8" height="8"/><rect x="150" y="174" width="8" height="8"/><rect x="166" y="174" width="8" height="8"/><rect x="182" y="174" width="8" height="8"/><rect x="190" y="174" width="8" height="8"/><rect x="206" y="174" width="8" height="8"/><rect x="214" y="174" width="8" height="8"/><rect x="222" y="174" width="8" height="8"/>
    <rect x="78" y="182" width="8" height="8"/><rect x="94" y="182" width="8" height="8"/><rect x="110" y="182" width="8" height="8"/><rect x="134" y="182" width="8" height="8"/><rect x="142" y="182" width="8" height="8"/><rect x="166" y="182" width="8" height="8"/><rect x="174" y="182" width="8" height="8"/><rect x="190" y="182" width="8" height="8"/><rect x="214" y="182" width="8" height="8"/><rect x="222" y="182" width="8" height="8"/>
    <rect x="70" y="190" width="8" height="8"/><rect x="86" y="190" width="8" height="8"/><rect x="94" y="190" width="8" height="8"/><rect x="102" y="190" width="8" height="8"/><rect x="110" y="190" width="8" height="8"/><rect x="126" y="190" width="8" height="8"/><rect x="134" y="190" width="8" height="8"/><rect x="150" y="190" width="8" height="8"/><rect x="158" y="190" width="8" height="8"/><rect x="174" y="190" width="8" height="8"/><rect x="182" y="190" width="8" height="8"/><rect x="198" y="190" width="8" height="8"/><rect x="206" y="190" width="8" height="8"/><rect x="214" y="190" width="8" height="8"/>
    <rect x="78" y="198" width="8" height="8"/><rect x="102" y="198" width="8" height="8"/><rect x="110" y="198" width="8" height="8"/><rect x="118" y="198" width="8" height="8"/><rect x="126" y="198" width="8" height="8"/><rect x="142" y="198" width="8" height="8"/><rect x="150" y="198" width="8" height="8"/><rect x="158" y="198" width="8" height="8"/><rect x="174" y="198" width="8" height="8"/><rect x="190" y="198" width="8" height="8"/><rect x="198" y="198" width="8" height="8"/><rect x="206" y="198" width="8" height="8"/><rect x="222" y="198" width="8" height="8"/>
    <rect x="70" y="206" width="8" height="8"/><rect x="86" y="206" width="8" height="8"/><rect x="94" y="206" width="8" height="8"/><rect x="110" y="206" width="8" height="8"/><rect x="134" y="206" width="8" height="8"/><rect x="150" y="206" width="8" height="8"/><rect x="166" y="206" width="8" height="8"/><rect x="174" y="206" width="8" height="8"/><rect x="190" y="206" width="8" height="8"/><rect x="198" y="206" width="8" height="8"/><rect x="214" y="206" width="8" height="8"/><rect x="222" y="206" width="8" height="8"/><rect x="230" y="206" width="8" height="8"/>
    <rect x="70" y="214" width="8" height="8"/><rect x="78" y="214" width="8" height="8"/><rect x="86" y="214" width="8" height="8"/><rect x="102" y="214" width="8" height="8"/><rect x="118" y="214" width="8" height="8"/><rect x="126" y="214" width="8" height="8"/><rect x="142" y="214" width="8" height="8"/><rect x="158" y="214" width="8" height="8"/><rect x="174" y="214" width="8" height="8"/><rect x="182" y="214" width="8" height="8"/><rect x="190" y="214" width="8" height="8"/><rect x="206" y="214" width="8" height="8"/><rect x="214" y="214" width="8" height="8"/><rect x="230" y="214" width="8" height="8"/>
    <rect x="78" y="222" width="8" height="8"/><rect x="86" y="222" width="8" height="8"/><rect x="94" y="222" width="8" height="8"/><rect x="118" y="222" width="8" height="8"/><rect x="126" y="222" width="8" height="8"/><rect x="134" y="222" width="8" height="8"/><rect x="142" y="222" width="8" height="8"/><rect x="158" y="222" width="8" height="8"/><rect x="174" y="222" width="8" height="8"/><rect x="182" y="222" width="8" height="8"/><rect x="198" y="222" width="8" height="8"/><rect x="206" y="222" width="8" height="8"/><rect x="214" y="222" width="8" height="8"/>
  </g>
</svg>
